# xmcd
#
# Track frame offsets: 
#        150
#        17165
#        29525
#        44292
#        61705
#        77652
#        93085
#        113537
#        128740
#        144767
#        158155
#        171007
#        188747
#        203117
#        215815
#        228607
#        243840
#        260930
#        274597
#        291395
#        307575
#        325020
#
# Disc length: 4480 seconds
#
# Revision: 0
# Processed by: cddbd v1.5.2PL0 Copyright (c) Steve Scherf et al.
# Submitted via: ExactAudioCopy v0.99pb4
#
DISCID=29117e16
DTITLE=Hiromi Sano and King Orchestra - Aishuu No Mood Sax Kayou
DYEAR=2007
DGENRE=Instrumental
TTITLE0=Mistress
TTITLE1=Love You
TTITLE2=Longing For Rain
TTITLE3=Atonement
TTITLE4=See You In Yurakucho
TTITLE5=Lake Mashu In Fog
TTITLE6=Snow Country
TTITLE7=Cheers
TTITLE8=Old Name Has Gone Out
TTITLE9=Una Sera Di Tokyo
TTITLE10=Bruce Seaport
TTITLE11=Bruce Yanagase
TTITLE12=Red Handkerchief
TTITLE13=Love Slave
TTITLE14=Woman Rumors
TTITLE15=Thanks You Tonight Night Fog
TTITLE16=Different Life
TTITLE17=Veggie - Delight Night Dream
TTITLE18=Dream Theater
TTITLE19=3-Year ltch
TTITLE20=Tokyo Night Club
TTITLE21=Peony Lions
EXTD=
EXTT0=
EXTT1=
EXTT2=
EXTT3=
EXTT4=
EXTT5=
EXTT6=
EXTT7=
EXTT8=
EXTT9=
EXTT10=
EXTT11=
EXTT12=
EXTT13=
EXTT14=
EXTT15=
EXTT16=
EXTT17=
EXTT18=
EXTT19=
EXTT20=
EXTT21=
PLAYORDER=
